<?xml version="1.0" encoding="UTF-8" standalone="no"?>
<!DOCTYPE svg PUBLIC "-//W3C//DTD SVG 1.1//EN"
 "http://www.w3.org/Graphics/SVG/1.1/DTD/svg11.dtd">
<!-- Generated by graphviz version 2.47.2 (0)
 -->
<!-- Pages: 1 -->
<svg width="354pt" height="188pt"
 viewBox="0.00 0.00 353.69 188.00" xmlns="http://www.w3.org/2000/svg" xmlns:xlink="http://www.w3.org/1999/xlink">
<g id="graph0" class="graph" transform="scale(1 1) rotate(0) translate(4 184)">
<polygon fill="white" stroke="transparent" points="-4,4 -4,-184 349.69,-184 349.69,4 -4,4"/>
<!-- 1 -->
<g id="node1" class="node">
<title>1</title>
<ellipse fill="none" stroke="black" cx="170.3" cy="-162" rx="30.59" ry="18"/>
<text text-anchor="middle" x="170.3" y="-158.3" font-family="Times,serif" font-size="14.00">HIST</text>
</g>
<!-- 2 -->
<g id="node2" class="node">
<title>2</title>
<ellipse fill="none" stroke="black" cx="127.3" cy="-90" rx="27" ry="18"/>
<text text-anchor="middle" x="127.3" y="-86.3" font-family="Times,serif" font-size="14.00">ocn</text>
</g>
<!-- 1&#45;&gt;2 -->
<g id="edge1" class="edge">
<title>1&#45;&gt;2</title>
<path fill="none" stroke="black" d="M160.32,-144.76C155.06,-136.19 148.49,-125.49 142.59,-115.9"/>
<polygon fill="black" stroke="black" points="145.43,-113.84 137.22,-107.15 139.47,-117.5 145.43,-113.84"/>
</g>
<!-- 5 -->
<g id="node5" class="node">
<title>5</title>
<ellipse fill="none" stroke="black" cx="214.3" cy="-90" rx="27" ry="18"/>
<text text-anchor="middle" x="214.3" y="-86.3" font-family="Times,serif" font-size="14.00">atm</text>
</g>
<!-- 1&#45;&gt;5 -->
<g id="edge4" class="edge">
<title>1&#45;&gt;5</title>
<path fill="none" stroke="black" d="M180.5,-144.76C185.89,-136.19 192.61,-125.49 198.64,-115.9"/>
<polygon fill="black" stroke="black" points="201.79,-117.48 204.15,-107.15 195.86,-113.75 201.79,-117.48"/>
</g>
<!-- 3 -->
<g id="node3" class="node">
<title>3</title>
<ellipse fill="none" stroke="black" cx="40.3" cy="-18" rx="40.09" ry="18"/>
<text text-anchor="middle" x="40.3" y="-14.3" font-family="Times,serif" font-size="14.00">monthly</text>
</g>
<!-- 2&#45;&gt;3 -->
<g id="edge2" class="edge">
<title>2&#45;&gt;3</title>
<path fill="none" stroke="black" d="M110.52,-75.5C98.22,-65.61 81.27,-51.96 67.1,-40.56"/>
<polygon fill="black" stroke="black" points="69.12,-37.7 59.13,-34.16 64.73,-43.15 69.12,-37.7"/>
</g>
<!-- 4 -->
<g id="node4" class="node">
<title>4</title>
<ellipse fill="none" stroke="black" cx="127.3" cy="-18" rx="28.7" ry="18"/>
<text text-anchor="middle" x="127.3" y="-14.3" font-family="Times,serif" font-size="14.00">daily</text>
</g>
<!-- 2&#45;&gt;4 -->
<g id="edge3" class="edge">
<title>2&#45;&gt;4</title>
<path fill="none" stroke="black" d="M127.3,-71.7C127.3,-63.98 127.3,-54.71 127.3,-46.11"/>
<polygon fill="black" stroke="black" points="130.8,-46.1 127.3,-36.1 123.8,-46.1 130.8,-46.1"/>
</g>
<!-- 6 -->
<g id="node6" class="node">
<title>6</title>
<ellipse fill="none" stroke="black" cx="214.3" cy="-18" rx="40.09" ry="18"/>
<text text-anchor="middle" x="214.3" y="-14.3" font-family="Times,serif" font-size="14.00">monthly</text>
</g>
<!-- 5&#45;&gt;6 -->
<g id="edge5" class="edge">
<title>5&#45;&gt;6</title>
<path fill="none" stroke="black" d="M214.3,-71.7C214.3,-63.98 214.3,-54.71 214.3,-46.11"/>
<polygon fill="black" stroke="black" points="217.8,-46.1 214.3,-36.1 210.8,-46.1 217.8,-46.1"/>
</g>
<!-- 7 -->
<g id="node7" class="node">
<title>7</title>
<ellipse fill="none" stroke="black" cx="309.3" cy="-18" rx="36.29" ry="18"/>
<text text-anchor="middle" x="309.3" y="-14.3" font-family="Times,serif" font-size="14.00">weekly</text>
</g>
<!-- 5&#45;&gt;7 -->
<g id="edge6" class="edge">
<title>5&#45;&gt;7</title>
<path fill="none" stroke="black" d="M231.72,-76.16C245.55,-65.97 265.16,-51.52 281.2,-39.7"/>
<polygon fill="black" stroke="black" points="283.71,-42.2 289.69,-33.45 279.56,-36.56 283.71,-42.2"/>
</g>
</g>
</svg>