<?xml version="1.0" encoding="UTF-8" standalone="no"?>
<!DOCTYPE svg PUBLIC "-//W3C//DTD SVG 1.1//EN"
 "http://www.w3.org/Graphics/SVG/1.1/DTD/svg11.dtd">
<!-- Generated by graphviz version 2.47.2 (0)
 -->
<!-- Pages: 1 -->
<svg width="380pt" height="3014pt"
 viewBox="0.00 0.00 380.27 3014.00" xmlns="http://www.w3.org/2000/svg" xmlns:xlink="http://www.w3.org/1999/xlink">
<g id="graph0" class="graph" transform="scale(1 1) rotate(0) translate(4 3010)">
<polygon fill="white" stroke="transparent" points="-4,4 -4,-3010 376.27,-3010 376.27,4 -4,4"/>
<!-- 1 -->
<g id="node1" class="node">
<title>1</title>
<ellipse fill="none" stroke="black" cx="36.4" cy="-261" rx="27" ry="18"/>
<text text-anchor="middle" x="36.4" y="-257.3" font-family="Times,serif" font-size="14.00">20C</text>
</g>
<!-- 2 -->
<g id="node2" class="node">
<title>2</title>
<ellipse fill="none" stroke="black" cx="143.24" cy="-504" rx="27" ry="18"/>
<text text-anchor="middle" x="143.24" y="-500.3" font-family="Times,serif" font-size="14.00">atm</text>
</g>
<!-- 1&#45;&gt;2 -->
<g id="edge1" class="edge">
<title>1&#45;&gt;2</title>
<path fill="none" stroke="black" d="M44.94,-278.48C63.07,-320.51 109.22,-427.47 130.8,-477.48"/>
<polygon fill="black" stroke="black" points="127.59,-478.89 134.77,-486.68 134.02,-476.11 127.59,-478.89"/>
</g>
<!-- 7 -->
<g id="node7" class="node">
<title>7</title>
<ellipse fill="none" stroke="black" cx="143.24" cy="-342" rx="34.39" ry="18"/>
<text text-anchor="middle" x="143.24" y="-338.3" font-family="Times,serif" font-size="14.00">ice_nh</text>
</g>
<!-- 1&#45;&gt;7 -->
<g id="edge6" class="edge">
<title>1&#45;&gt;7</title>
<path fill="none" stroke="black" d="M54.71,-274.38C71.12,-287.06 96.04,-306.31 115.1,-321.03"/>
<polygon fill="black" stroke="black" points="113.07,-323.89 123.12,-327.23 117.35,-318.35 113.07,-323.89"/>
</g>
<!-- 10 -->
<g id="node10" class="node">
<title>10</title>
<ellipse fill="none" stroke="black" cx="143.24" cy="-261" rx="33.29" ry="18"/>
<text text-anchor="middle" x="143.24" y="-257.3" font-family="Times,serif" font-size="14.00">ice_sh</text>
</g>
<!-- 1&#45;&gt;10 -->
<g id="edge9" class="edge">
<title>1&#45;&gt;10</title>
<path fill="none" stroke="black" d="M63.58,-261C74.58,-261 87.64,-261 99.94,-261"/>
<polygon fill="black" stroke="black" points="100.02,-264.5 110.02,-261 100.02,-257.5 100.02,-264.5"/>
</g>
<!-- 13 -->
<g id="node13" class="node">
<title>13</title>
<ellipse fill="none" stroke="black" cx="143.24" cy="-180" rx="27" ry="18"/>
<text text-anchor="middle" x="143.24" y="-176.3" font-family="Times,serif" font-size="14.00">lnd</text>
</g>
<!-- 1&#45;&gt;13 -->
<g id="edge12" class="edge">
<title>1&#45;&gt;13</title>
<path fill="none" stroke="black" d="M54.71,-247.62C71.63,-234.55 97.59,-214.5 116.84,-199.62"/>
<polygon fill="black" stroke="black" points="119.13,-202.28 124.9,-193.4 114.85,-196.74 119.13,-202.28"/>
</g>
<!-- 16 -->
<g id="node16" class="node">
<title>16</title>
<ellipse fill="none" stroke="black" cx="143.24" cy="-72" rx="27" ry="18"/>
<text text-anchor="middle" x="143.24" y="-68.3" font-family="Times,serif" font-size="14.00">ocn</text>
</g>
<!-- 1&#45;&gt;16 -->
<g id="edge15" class="edge">
<title>1&#45;&gt;16</title>
<path fill="none" stroke="black" d="M46.7,-244.23C65.04,-211.16 105.98,-137.37 127.84,-97.97"/>
<polygon fill="black" stroke="black" points="131.17,-99.18 132.96,-88.73 125.05,-95.78 131.17,-99.18"/>
</g>
<!-- 3 -->
<g id="node3" class="node">
<title>3</title>
<ellipse fill="none" stroke="black" cx="292.98" cy="-612" rx="28.7" ry="18"/>
<text text-anchor="middle" x="292.98" y="-608.3" font-family="Times,serif" font-size="14.00">daily</text>
</g>
<!-- 2&#45;&gt;3 -->
<g id="edge2" class="edge">
<title>2&#45;&gt;3</title>
<path fill="none" stroke="black" d="M154.53,-520.58C166.61,-538.79 188.26,-567.71 213.69,-585 226.22,-593.52 241.71,-599.6 255.59,-603.81"/>
<polygon fill="black" stroke="black" points="254.78,-607.22 265.35,-606.55 256.67,-600.48 254.78,-607.22"/>
</g>
<!-- 4 -->
<g id="node4" class="node">
<title>4</title>
<ellipse fill="none" stroke="black" cx="292.98" cy="-558" rx="79.09" ry="18"/>
<text text-anchor="middle" x="292.98" y="-554.3" font-family="Times,serif" font-size="14.00">hourly6&#45;1990&#45;2005</text>
</g>
<!-- 2&#45;&gt;4 -->
<g id="edge3" class="edge">
<title>2&#45;&gt;4</title>
<path fill="none" stroke="black" d="M166.68,-512.98C180.24,-518.34 197.9,-525.21 213.69,-531 221.64,-533.92 230.09,-536.92 238.37,-539.82"/>
<polygon fill="black" stroke="black" points="237.39,-543.18 247.98,-543.16 239.68,-536.57 237.39,-543.18"/>
</g>
<!-- 5 -->
<g id="node5" class="node">
<title>5</title>
<ellipse fill="none" stroke="black" cx="292.98" cy="-504" rx="40.09" ry="18"/>
<text text-anchor="middle" x="292.98" y="-500.3" font-family="Times,serif" font-size="14.00">monthly</text>
</g>
<!-- 2&#45;&gt;5 -->
<g id="edge4" class="edge">
<title>2&#45;&gt;5</title>
<path fill="none" stroke="black" d="M170.31,-504C190.25,-504 218.32,-504 242.47,-504"/>
<polygon fill="black" stroke="black" points="242.55,-507.5 252.55,-504 242.55,-500.5 242.55,-507.5"/>
</g>
<!-- 6 -->
<g id="node6" class="node">
<title>6</title>
<ellipse fill="none" stroke="black" cx="292.98" cy="-450" rx="29.5" ry="18"/>
<text text-anchor="middle" x="292.98" y="-446.3" font-family="Times,serif" font-size="14.00">static</text>
</g>
<!-- 2&#45;&gt;6 -->
<g id="edge5" class="edge">
<title>2&#45;&gt;6</title>
<path fill="none" stroke="black" d="M166.68,-495.02C180.24,-489.66 197.9,-482.79 213.69,-477 227.92,-471.78 243.7,-466.28 257.35,-461.62"/>
<polygon fill="black" stroke="black" points="258.52,-464.92 266.86,-458.39 256.26,-458.29 258.52,-464.92"/>
</g>
<!-- 8 -->
<g id="node8" class="node">
<title>8</title>
<ellipse fill="none" stroke="black" cx="292.98" cy="-396" rx="40.09" ry="18"/>
<text text-anchor="middle" x="292.98" y="-392.3" font-family="Times,serif" font-size="14.00">monthly</text>
</g>
<!-- 7&#45;&gt;8 -->
<g id="edge7" class="edge">
<title>7&#45;&gt;8</title>
<path fill="none" stroke="black" d="M171.19,-352.76C184.02,-357.81 199.6,-363.83 213.69,-369 225.6,-373.37 238.61,-377.94 250.54,-382.04"/>
<polygon fill="black" stroke="black" points="249.67,-385.44 260.26,-385.37 251.94,-378.82 249.67,-385.44"/>
</g>
<!-- 9 -->
<g id="node9" class="node">
<title>9</title>
<ellipse fill="none" stroke="black" cx="292.98" cy="-342" rx="29.5" ry="18"/>
<text text-anchor="middle" x="292.98" y="-338.3" font-family="Times,serif" font-size="14.00">static</text>
</g>
<!-- 7&#45;&gt;9 -->
<g id="edge8" class="edge">
<title>7&#45;&gt;9</title>
<path fill="none" stroke="black" d="M177.76,-342C200.21,-342 229.82,-342 253.27,-342"/>
<polygon fill="black" stroke="black" points="253.56,-345.5 263.56,-342 253.56,-338.5 253.56,-345.5"/>
</g>
<!-- 11 -->
<g id="node11" class="node">
<title>11</title>
<ellipse fill="none" stroke="black" cx="292.98" cy="-288" rx="40.09" ry="18"/>
<text text-anchor="middle" x="292.98" y="-284.3" font-family="Times,serif" font-size="14.00">monthly</text>
</g>
<!-- 10&#45;&gt;11 -->
<g id="edge10" class="edge">
<title>10&#45;&gt;11</title>
<path fill="none" stroke="black" d="M174.85,-266.59C195.25,-270.32 222.43,-275.29 245.48,-279.5"/>
<polygon fill="black" stroke="black" points="244.94,-282.96 255.4,-281.32 246.19,-276.07 244.94,-282.96"/>
</g>
<!-- 12 -->
<g id="node12" class="node">
<title>12</title>
<ellipse fill="none" stroke="black" cx="292.98" cy="-234" rx="29.5" ry="18"/>
<text text-anchor="middle" x="292.98" y="-230.3" font-family="Times,serif" font-size="14.00">static</text>
</g>
<!-- 10&#45;&gt;12 -->
<g id="edge11" class="edge">
<title>10&#45;&gt;12</title>
<path fill="none" stroke="black" d="M174.85,-255.41C197.93,-251.19 229.69,-245.38 254.32,-240.88"/>
<polygon fill="black" stroke="black" points="255.19,-244.28 264.4,-239.04 253.93,-237.4 255.19,-244.28"/>
</g>
<!-- 14 -->
<g id="node14" class="node">
<title>14</title>
<ellipse fill="none" stroke="black" cx="292.98" cy="-180" rx="40.09" ry="18"/>
<text text-anchor="middle" x="292.98" y="-176.3" font-family="Times,serif" font-size="14.00">monthly</text>
</g>
<!-- 13&#45;&gt;14 -->
<g id="edge13" class="edge">
<title>13&#45;&gt;14</title>
<path fill="none" stroke="black" d="M170.31,-180C190.25,-180 218.32,-180 242.47,-180"/>
<polygon fill="black" stroke="black" points="242.55,-183.5 252.55,-180 242.55,-176.5 242.55,-183.5"/>
</g>
<!-- 15 -->
<g id="node15" class="node">
<title>15</title>
<ellipse fill="none" stroke="black" cx="292.98" cy="-126" rx="29.5" ry="18"/>
<text text-anchor="middle" x="292.98" y="-122.3" font-family="Times,serif" font-size="14.00">static</text>
</g>
<!-- 13&#45;&gt;15 -->
<g id="edge14" class="edge">
<title>13&#45;&gt;15</title>
<path fill="none" stroke="black" d="M166.68,-171.02C180.24,-165.66 197.9,-158.79 213.69,-153 227.92,-147.78 243.7,-142.28 257.35,-137.62"/>
<polygon fill="black" stroke="black" points="258.52,-140.92 266.86,-134.39 256.26,-134.29 258.52,-140.92"/>
</g>
<!-- 17 -->
<g id="node17" class="node">
<title>17</title>
<ellipse fill="none" stroke="black" cx="292.98" cy="-72" rx="40.09" ry="18"/>
<text text-anchor="middle" x="292.98" y="-68.3" font-family="Times,serif" font-size="14.00">monthly</text>
</g>
<!-- 16&#45;&gt;17 -->
<g id="edge16" class="edge">
<title>16&#45;&gt;17</title>
<path fill="none" stroke="black" d="M170.31,-72C190.25,-72 218.32,-72 242.47,-72"/>
<polygon fill="black" stroke="black" points="242.55,-75.5 252.55,-72 242.55,-68.5 242.55,-75.5"/>
</g>
<!-- 18 -->
<g id="node18" class="node">
<title>18</title>
<ellipse fill="none" stroke="black" cx="292.98" cy="-18" rx="29.5" ry="18"/>
<text text-anchor="middle" x="292.98" y="-14.3" font-family="Times,serif" font-size="14.00">static</text>
</g>
<!-- 16&#45;&gt;18 -->
<g id="edge17" class="edge">
<title>16&#45;&gt;18</title>
<path fill="none" stroke="black" d="M166.68,-63.02C180.24,-57.66 197.9,-50.79 213.69,-45 227.92,-39.78 243.7,-34.28 257.35,-29.62"/>
<polygon fill="black" stroke="black" points="258.52,-32.92 266.86,-26.39 256.26,-26.29 258.52,-32.92"/>
</g>
<!-- 19 -->
<g id="node19" class="node">
<title>19</title>
<ellipse fill="none" stroke="black" cx="36.4" cy="-990" rx="33.29" ry="18"/>
<text text-anchor="middle" x="36.4" y="-986.3" font-family="Times,serif" font-size="14.00">CTRL</text>
</g>
<!-- 20 -->
<g id="node20" class="node">
<title>20</title>
<ellipse fill="none" stroke="black" cx="143.24" cy="-1287" rx="27" ry="18"/>
<text text-anchor="middle" x="143.24" y="-1283.3" font-family="Times,serif" font-size="14.00">atm</text>
</g>
<!-- 19&#45;&gt;20 -->
<g id="edge18" class="edge">
<title>19&#45;&gt;20</title>
<path fill="none" stroke="black" d="M43.64,-1007.69C61.27,-1057.62 111.5,-1199.93 132.66,-1259.86"/>
<polygon fill="black" stroke="black" points="129.4,-1261.14 136.03,-1269.4 136,-1258.81 129.4,-1261.14"/>
</g>
<!-- 24 -->
<g id="node24" class="node">
<title>24</title>
<ellipse fill="none" stroke="black" cx="143.24" cy="-1125" rx="34.39" ry="18"/>
<text text-anchor="middle" x="143.24" y="-1121.3" font-family="Times,serif" font-size="14.00">ice_nh</text>
</g>
<!-- 19&#45;&gt;24 -->
<g id="edge22" class="edge">
<title>19&#45;&gt;24</title>
<path fill="none" stroke="black" d="M50.25,-1006.55C68.49,-1030.03 102,-1073.18 123.14,-1100.41"/>
<polygon fill="black" stroke="black" points="120.38,-1102.56 129.28,-1108.31 125.91,-1098.27 120.38,-1102.56"/>
</g>
<!-- 28 -->
<g id="node28" class="node">
<title>28</title>
<ellipse fill="none" stroke="black" cx="143.24" cy="-990" rx="33.29" ry="18"/>
<text text-anchor="middle" x="143.24" y="-986.3" font-family="Times,serif" font-size="14.00">ice_sh</text>
</g>
<!-- 19&#45;&gt;28 -->
<g id="edge26" class="edge">
<title>19&#45;&gt;28</title>
<path fill="none" stroke="black" d="M69.71,-990C79.18,-990 89.67,-990 99.68,-990"/>
<polygon fill="black" stroke="black" points="99.85,-993.5 109.85,-990 99.85,-986.5 99.85,-993.5"/>
</g>
<!-- 32 -->
<g id="node32" class="node">
<title>32</title>
<ellipse fill="none" stroke="black" cx="143.24" cy="-855" rx="27" ry="18"/>
<text text-anchor="middle" x="143.24" y="-851.3" font-family="Times,serif" font-size="14.00">lnd</text>
</g>
<!-- 19&#45;&gt;32 -->
<g id="edge30" class="edge">
<title>19&#45;&gt;32</title>
<path fill="none" stroke="black" d="M50.25,-973.45C68.61,-949.81 102.43,-906.26 123.56,-879.06"/>
<polygon fill="black" stroke="black" points="126.56,-880.89 129.93,-870.85 121.03,-876.6 126.56,-880.89"/>
</g>
<!-- 36 -->
<g id="node36" class="node">
<title>36</title>
<ellipse fill="none" stroke="black" cx="143.24" cy="-720" rx="27" ry="18"/>
<text text-anchor="middle" x="143.24" y="-716.3" font-family="Times,serif" font-size="14.00">ocn</text>
</g>
<!-- 19&#45;&gt;36 -->
<g id="edge34" class="edge">
<title>19&#45;&gt;36</title>
<path fill="none" stroke="black" d="M44.28,-972.28C62.2,-926.12 110.44,-801.89 131.81,-746.86"/>
<polygon fill="black" stroke="black" points="135.12,-748.02 135.47,-737.43 128.59,-745.48 135.12,-748.02"/>
</g>
<!-- 21 -->
<g id="node21" class="node">
<title>21</title>
<ellipse fill="none" stroke="black" cx="292.98" cy="-1368" rx="28.7" ry="18"/>
<text text-anchor="middle" x="292.98" y="-1364.3" font-family="Times,serif" font-size="14.00">daily</text>
</g>
<!-- 20&#45;&gt;21 -->
<g id="edge19" class="edge">
<title>20&#45;&gt;21</title>
<path fill="none" stroke="black" d="M159.74,-1301.49C173.16,-1313.42 193.54,-1330.09 213.69,-1341 227.01,-1348.22 242.64,-1354.07 256.41,-1358.46"/>
<polygon fill="black" stroke="black" points="255.47,-1361.83 266.06,-1361.39 257.51,-1355.13 255.47,-1361.83"/>
</g>
<!-- 22 -->
<g id="node22" class="node">
<title>22</title>
<ellipse fill="none" stroke="black" cx="292.98" cy="-1314" rx="40.09" ry="18"/>
<text text-anchor="middle" x="292.98" y="-1310.3" font-family="Times,serif" font-size="14.00">monthly</text>
</g>
<!-- 20&#45;&gt;22 -->
<g id="edge20" class="edge">
<title>20&#45;&gt;22</title>
<path fill="none" stroke="black" d="M169.64,-1291.64C190.38,-1295.43 220.24,-1300.89 245.27,-1305.46"/>
<polygon fill="black" stroke="black" points="244.84,-1308.94 255.3,-1307.3 246.1,-1302.06 244.84,-1308.94"/>
</g>
<!-- 23 -->
<g id="node23" class="node">
<title>23</title>
<ellipse fill="none" stroke="black" cx="292.98" cy="-1260" rx="29.5" ry="18"/>
<text text-anchor="middle" x="292.98" y="-1256.3" font-family="Times,serif" font-size="14.00">static</text>
</g>
<!-- 20&#45;&gt;23 -->
<g id="edge21" class="edge">
<title>20&#45;&gt;23</title>
<path fill="none" stroke="black" d="M169.64,-1282.36C193.02,-1278.09 228,-1271.69 254.57,-1266.84"/>
<polygon fill="black" stroke="black" points="255.45,-1270.23 264.66,-1264.99 254.2,-1263.35 255.45,-1270.23"/>
</g>
<!-- 25 -->
<g id="node25" class="node">
<title>25</title>
<ellipse fill="none" stroke="black" cx="292.98" cy="-1206" rx="28.7" ry="18"/>
<text text-anchor="middle" x="292.98" y="-1202.3" font-family="Times,serif" font-size="14.00">daily</text>
</g>
<!-- 24&#45;&gt;25 -->
<g id="edge23" class="edge">
<title>24&#45;&gt;25</title>
<path fill="none" stroke="black" d="M161.1,-1140.7C174.52,-1152.53 194.22,-1168.45 213.69,-1179 227.01,-1186.22 242.64,-1192.07 256.41,-1196.46"/>
<polygon fill="black" stroke="black" points="255.47,-1199.83 266.06,-1199.39 257.51,-1193.13 255.47,-1199.83"/>
</g>
<!-- 26 -->
<g id="node26" class="node">
<title>26</title>
<ellipse fill="none" stroke="black" cx="292.98" cy="-1152" rx="40.09" ry="18"/>
<text text-anchor="middle" x="292.98" y="-1148.3" font-family="Times,serif" font-size="14.00">monthly</text>
</g>
<!-- 24&#45;&gt;26 -->
<g id="edge24" class="edge">
<title>24&#45;&gt;26</title>
<path fill="none" stroke="black" d="M175.93,-1130.79C196.15,-1134.49 222.71,-1139.34 245.32,-1143.47"/>
<polygon fill="black" stroke="black" points="244.93,-1146.96 255.39,-1145.31 246.19,-1140.07 244.93,-1146.96"/>
</g>
<!-- 27 -->
<g id="node27" class="node">
<title>27</title>
<ellipse fill="none" stroke="black" cx="292.98" cy="-1098" rx="29.5" ry="18"/>
<text text-anchor="middle" x="292.98" y="-1094.3" font-family="Times,serif" font-size="14.00">static</text>
</g>
<!-- 24&#45;&gt;27 -->
<g id="edge25" class="edge">
<title>24&#45;&gt;27</title>
<path fill="none" stroke="black" d="M175.93,-1119.21C199.08,-1114.98 230.54,-1109.23 254.86,-1104.78"/>
<polygon fill="black" stroke="black" points="255.59,-1108.21 264.8,-1102.97 254.34,-1101.32 255.59,-1108.21"/>
</g>
<!-- 29 -->
<g id="node29" class="node">
<title>29</title>
<ellipse fill="none" stroke="black" cx="292.98" cy="-1044" rx="28.7" ry="18"/>
<text text-anchor="middle" x="292.98" y="-1040.3" font-family="Times,serif" font-size="14.00">daily</text>
</g>
<!-- 28&#45;&gt;29 -->
<g id="edge27" class="edge">
<title>28&#45;&gt;29</title>
<path fill="none" stroke="black" d="M170.53,-1000.5C183.48,-1005.6 199.36,-1011.75 213.69,-1017 228.03,-1022.26 243.94,-1027.8 257.66,-1032.49"/>
<polygon fill="black" stroke="black" points="256.62,-1035.83 267.21,-1035.73 258.87,-1029.2 256.62,-1035.83"/>
</g>
<!-- 30 -->
<g id="node30" class="node">
<title>30</title>
<ellipse fill="none" stroke="black" cx="292.98" cy="-990" rx="40.09" ry="18"/>
<text text-anchor="middle" x="292.98" y="-986.3" font-family="Times,serif" font-size="14.00">monthly</text>
</g>
<!-- 28&#45;&gt;30 -->
<g id="edge28" class="edge">
<title>28&#45;&gt;30</title>
<path fill="none" stroke="black" d="M176.66,-990C195.95,-990 220.81,-990 242.5,-990"/>
<polygon fill="black" stroke="black" points="242.54,-993.5 252.54,-990 242.54,-986.5 242.54,-993.5"/>
</g>
<!-- 31 -->
<g id="node31" class="node">
<title>31</title>
<ellipse fill="none" stroke="black" cx="292.98" cy="-936" rx="29.5" ry="18"/>
<text text-anchor="middle" x="292.98" y="-932.3" font-family="Times,serif" font-size="14.00">static</text>
</g>
<!-- 28&#45;&gt;31 -->
<g id="edge29" class="edge">
<title>28&#45;&gt;31</title>
<path fill="none" stroke="black" d="M170.53,-979.5C183.48,-974.4 199.36,-968.25 213.69,-963 227.92,-957.78 243.7,-952.28 257.35,-947.62"/>
<polygon fill="black" stroke="black" points="258.52,-950.92 266.86,-944.39 256.26,-944.29 258.52,-950.92"/>
</g>
<!-- 33 -->
<g id="node33" class="node">
<title>33</title>
<ellipse fill="none" stroke="black" cx="292.98" cy="-882" rx="28.7" ry="18"/>
<text text-anchor="middle" x="292.98" y="-878.3" font-family="Times,serif" font-size="14.00">daily</text>
</g>
<!-- 32&#45;&gt;33 -->
<g id="edge31" class="edge">
<title>32&#45;&gt;33</title>
<path fill="none" stroke="black" d="M169.64,-859.64C193.24,-863.95 228.65,-870.43 255.31,-875.3"/>
<polygon fill="black" stroke="black" points="254.95,-878.79 265.42,-877.15 256.21,-871.91 254.95,-878.79"/>
</g>
<!-- 34 -->
<g id="node34" class="node">
<title>34</title>
<ellipse fill="none" stroke="black" cx="292.98" cy="-828" rx="40.09" ry="18"/>
<text text-anchor="middle" x="292.98" y="-824.3" font-family="Times,serif" font-size="14.00">monthly</text>
</g>
<!-- 32&#45;&gt;34 -->
<g id="edge32" class="edge">
<title>32&#45;&gt;34</title>
<path fill="none" stroke="black" d="M169.64,-850.36C190.38,-846.57 220.24,-841.11 245.27,-836.54"/>
<polygon fill="black" stroke="black" points="246.1,-839.94 255.3,-834.7 244.84,-833.06 246.1,-839.94"/>
</g>
<!-- 35 -->
<g id="node35" class="node">
<title>35</title>
<ellipse fill="none" stroke="black" cx="292.98" cy="-774" rx="29.5" ry="18"/>
<text text-anchor="middle" x="292.98" y="-770.3" font-family="Times,serif" font-size="14.00">static</text>
</g>
<!-- 32&#45;&gt;35 -->
<g id="edge33" class="edge">
<title>32&#45;&gt;35</title>
<path fill="none" stroke="black" d="M159.74,-840.51C173.16,-828.58 193.54,-811.91 213.69,-801 226.91,-793.84 242.4,-788.02 256.1,-783.64"/>
<polygon fill="black" stroke="black" points="257.15,-786.98 265.7,-780.71 255.11,-780.28 257.15,-786.98"/>
</g>
<!-- 37 -->
<g id="node37" class="node">
<title>37</title>
<ellipse fill="none" stroke="black" cx="292.98" cy="-720" rx="40.09" ry="18"/>
<text text-anchor="middle" x="292.98" y="-716.3" font-family="Times,serif" font-size="14.00">monthly</text>
</g>
<!-- 36&#45;&gt;37 -->
<g id="edge35" class="edge">
<title>36&#45;&gt;37</title>
<path fill="none" stroke="black" d="M170.31,-720C190.25,-720 218.32,-720 242.47,-720"/>
<polygon fill="black" stroke="black" points="242.55,-723.5 252.55,-720 242.55,-716.5 242.55,-723.5"/>
</g>
<!-- 38 -->
<g id="node38" class="node">
<title>38</title>
<ellipse fill="none" stroke="black" cx="292.98" cy="-666" rx="29.5" ry="18"/>
<text text-anchor="middle" x="292.98" y="-662.3" font-family="Times,serif" font-size="14.00">static</text>
</g>
<!-- 36&#45;&gt;38 -->
<g id="edge36" class="edge">
<title>36&#45;&gt;38</title>
<path fill="none" stroke="black" d="M166.68,-711.02C180.24,-705.66 197.9,-698.79 213.69,-693 227.92,-687.78 243.7,-682.28 257.35,-677.62"/>
<polygon fill="black" stroke="black" points="258.52,-680.92 266.86,-674.39 256.26,-674.29 258.52,-680.92"/>
</g>
<!-- 39 -->
<g id="node39" class="node">
<title>39</title>
<ellipse fill="none" stroke="black" cx="36.4" cy="-1746" rx="30.59" ry="18"/>
<text text-anchor="middle" x="36.4" y="-1742.3" font-family="Times,serif" font-size="14.00">HIST</text>
</g>
<!-- 40 -->
<g id="node40" class="node">
<title>40</title>
<ellipse fill="none" stroke="black" cx="143.24" cy="-2043" rx="27" ry="18"/>
<text text-anchor="middle" x="143.24" y="-2039.3" font-family="Times,serif" font-size="14.00">atm</text>
</g>
<!-- 39&#45;&gt;40 -->
<g id="edge37" class="edge">
<title>39&#45;&gt;40</title>
<path fill="none" stroke="black" d="M43.64,-1763.69C61.27,-1813.62 111.5,-1955.93 132.66,-2015.86"/>
<polygon fill="black" stroke="black" points="129.4,-2017.14 136.03,-2025.4 136,-2014.81 129.4,-2017.14"/>
</g>
<!-- 44 -->
<g id="node44" class="node">
<title>44</title>
<ellipse fill="none" stroke="black" cx="143.24" cy="-1881" rx="34.39" ry="18"/>
<text text-anchor="middle" x="143.24" y="-1877.3" font-family="Times,serif" font-size="14.00">ice_nh</text>
</g>
<!-- 39&#45;&gt;44 -->
<g id="edge41" class="edge">
<title>39&#45;&gt;44</title>
<path fill="none" stroke="black" d="M50.04,-1762.28C68.21,-1785.67 101.83,-1828.96 123.06,-1856.3"/>
<polygon fill="black" stroke="black" points="120.32,-1858.48 129.22,-1864.23 125.85,-1854.19 120.32,-1858.48"/>
</g>
<!-- 48 -->
<g id="node48" class="node">
<title>48</title>
<ellipse fill="none" stroke="black" cx="143.24" cy="-1746" rx="33.29" ry="18"/>
<text text-anchor="middle" x="143.24" y="-1742.3" font-family="Times,serif" font-size="14.00">ice_sh</text>
</g>
<!-- 39&#45;&gt;48 -->
<g id="edge45" class="edge">
<title>39&#45;&gt;48</title>
<path fill="none" stroke="black" d="M67.16,-1746C77.25,-1746 88.73,-1746 99.63,-1746"/>
<polygon fill="black" stroke="black" points="99.83,-1749.5 109.83,-1746 99.83,-1742.5 99.83,-1749.5"/>
</g>
<!-- 52 -->
<g id="node52" class="node">
<title>52</title>
<ellipse fill="none" stroke="black" cx="143.24" cy="-1611" rx="27" ry="18"/>
<text text-anchor="middle" x="143.24" y="-1607.3" font-family="Times,serif" font-size="14.00">lnd</text>
</g>
<!-- 39&#45;&gt;52 -->
<g id="edge49" class="edge">
<title>39&#45;&gt;52</title>
<path fill="none" stroke="black" d="M50.04,-1729.72C68.33,-1706.18 102.26,-1662.47 123.47,-1635.17"/>
<polygon fill="black" stroke="black" points="126.51,-1636.97 129.87,-1626.92 120.98,-1632.67 126.51,-1636.97"/>
</g>
<!-- 56 -->
<g id="node56" class="node">
<title>56</title>
<ellipse fill="none" stroke="black" cx="143.24" cy="-1476" rx="27" ry="18"/>
<text text-anchor="middle" x="143.24" y="-1472.3" font-family="Times,serif" font-size="14.00">ocn</text>
</g>
<!-- 39&#45;&gt;56 -->
<g id="edge53" class="edge">
<title>39&#45;&gt;56</title>
<path fill="none" stroke="black" d="M44.28,-1728.28C62.2,-1682.12 110.44,-1557.89 131.81,-1502.86"/>
<polygon fill="black" stroke="black" points="135.12,-1504.02 135.47,-1493.43 128.59,-1501.48 135.12,-1504.02"/>
</g>
<!-- 41 -->
<g id="node41" class="node">
<title>41</title>
<ellipse fill="none" stroke="black" cx="292.98" cy="-2124" rx="28.7" ry="18"/>
<text text-anchor="middle" x="292.98" y="-2120.3" font-family="Times,serif" font-size="14.00">daily</text>
</g>
<!-- 40&#45;&gt;41 -->
<g id="edge38" class="edge">
<title>40&#45;&gt;41</title>
<path fill="none" stroke="black" d="M159.74,-2057.49C173.16,-2069.42 193.54,-2086.09 213.69,-2097 227.01,-2104.22 242.64,-2110.07 256.41,-2114.46"/>
<polygon fill="black" stroke="black" points="255.47,-2117.83 266.06,-2117.39 257.51,-2111.13 255.47,-2117.83"/>
</g>
<!-- 42 -->
<g id="node42" class="node">
<title>42</title>
<ellipse fill="none" stroke="black" cx="292.98" cy="-2070" rx="40.09" ry="18"/>
<text text-anchor="middle" x="292.98" y="-2066.3" font-family="Times,serif" font-size="14.00">monthly</text>
</g>
<!-- 40&#45;&gt;42 -->
<g id="edge39" class="edge">
<title>40&#45;&gt;42</title>
<path fill="none" stroke="black" d="M169.64,-2047.64C190.38,-2051.43 220.24,-2056.89 245.27,-2061.46"/>
<polygon fill="black" stroke="black" points="244.84,-2064.94 255.3,-2063.3 246.1,-2058.06 244.84,-2064.94"/>
</g>
<!-- 43 -->
<g id="node43" class="node">
<title>43</title>
<ellipse fill="none" stroke="black" cx="292.98" cy="-2016" rx="29.5" ry="18"/>
<text text-anchor="middle" x="292.98" y="-2012.3" font-family="Times,serif" font-size="14.00">static</text>
</g>
<!-- 40&#45;&gt;43 -->
<g id="edge40" class="edge">
<title>40&#45;&gt;43</title>
<path fill="none" stroke="black" d="M169.64,-2038.36C193.02,-2034.09 228,-2027.69 254.57,-2022.84"/>
<polygon fill="black" stroke="black" points="255.45,-2026.23 264.66,-2020.99 254.2,-2019.35 255.45,-2026.23"/>
</g>
<!-- 45 -->
<g id="node45" class="node">
<title>45</title>
<ellipse fill="none" stroke="black" cx="292.98" cy="-1962" rx="28.7" ry="18"/>
<text text-anchor="middle" x="292.98" y="-1958.3" font-family="Times,serif" font-size="14.00">daily</text>
</g>
<!-- 44&#45;&gt;45 -->
<g id="edge42" class="edge">
<title>44&#45;&gt;45</title>
<path fill="none" stroke="black" d="M161.1,-1896.7C174.52,-1908.53 194.22,-1924.45 213.69,-1935 227.01,-1942.22 242.64,-1948.07 256.41,-1952.46"/>
<polygon fill="black" stroke="black" points="255.47,-1955.83 266.06,-1955.39 257.51,-1949.13 255.47,-1955.83"/>
</g>
<!-- 46 -->
<g id="node46" class="node">
<title>46</title>
<ellipse fill="none" stroke="black" cx="292.98" cy="-1908" rx="40.09" ry="18"/>
<text text-anchor="middle" x="292.98" y="-1904.3" font-family="Times,serif" font-size="14.00">monthly</text>
</g>
<!-- 44&#45;&gt;46 -->
<g id="edge43" class="edge">
<title>44&#45;&gt;46</title>
<path fill="none" stroke="black" d="M175.93,-1886.79C196.15,-1890.49 222.71,-1895.34 245.32,-1899.47"/>
<polygon fill="black" stroke="black" points="244.93,-1902.96 255.39,-1901.31 246.19,-1896.07 244.93,-1902.96"/>
</g>
<!-- 47 -->
<g id="node47" class="node">
<title>47</title>
<ellipse fill="none" stroke="black" cx="292.98" cy="-1854" rx="29.5" ry="18"/>
<text text-anchor="middle" x="292.98" y="-1850.3" font-family="Times,serif" font-size="14.00">static</text>
</g>
<!-- 44&#45;&gt;47 -->
<g id="edge44" class="edge">
<title>44&#45;&gt;47</title>
<path fill="none" stroke="black" d="M175.93,-1875.21C199.08,-1870.98 230.54,-1865.23 254.86,-1860.78"/>
<polygon fill="black" stroke="black" points="255.59,-1864.21 264.8,-1858.97 254.34,-1857.32 255.59,-1864.21"/>
</g>
<!-- 49 -->
<g id="node49" class="node">
<title>49</title>
<ellipse fill="none" stroke="black" cx="292.98" cy="-1800" rx="28.7" ry="18"/>
<text text-anchor="middle" x="292.98" y="-1796.3" font-family="Times,serif" font-size="14.00">daily</text>
</g>
<!-- 48&#45;&gt;49 -->
<g id="edge46" class="edge">
<title>48&#45;&gt;49</title>
<path fill="none" stroke="black" d="M170.53,-1756.5C183.48,-1761.6 199.36,-1767.75 213.69,-1773 228.03,-1778.26 243.94,-1783.8 257.66,-1788.49"/>
<polygon fill="black" stroke="black" points="256.62,-1791.83 267.21,-1791.73 258.87,-1785.2 256.62,-1791.83"/>
</g>
<!-- 50 -->
<g id="node50" class="node">
<title>50</title>
<ellipse fill="none" stroke="black" cx="292.98" cy="-1746" rx="40.09" ry="18"/>
<text text-anchor="middle" x="292.98" y="-1742.3" font-family="Times,serif" font-size="14.00">monthly</text>
</g>
<!-- 48&#45;&gt;50 -->
<g id="edge47" class="edge">
<title>48&#45;&gt;50</title>
<path fill="none" stroke="black" d="M176.66,-1746C195.95,-1746 220.81,-1746 242.5,-1746"/>
<polygon fill="black" stroke="black" points="242.54,-1749.5 252.54,-1746 242.54,-1742.5 242.54,-1749.5"/>
</g>
<!-- 51 -->
<g id="node51" class="node">
<title>51</title>
<ellipse fill="none" stroke="black" cx="292.98" cy="-1692" rx="29.5" ry="18"/>
<text text-anchor="middle" x="292.98" y="-1688.3" font-family="Times,serif" font-size="14.00">static</text>
</g>
<!-- 48&#45;&gt;51 -->
<g id="edge48" class="edge">
<title>48&#45;&gt;51</title>
<path fill="none" stroke="black" d="M170.53,-1735.5C183.48,-1730.4 199.36,-1724.25 213.69,-1719 227.92,-1713.78 243.7,-1708.28 257.35,-1703.62"/>
<polygon fill="black" stroke="black" points="258.52,-1706.92 266.86,-1700.39 256.26,-1700.29 258.52,-1706.92"/>
</g>
<!-- 53 -->
<g id="node53" class="node">
<title>53</title>
<ellipse fill="none" stroke="black" cx="292.98" cy="-1638" rx="28.7" ry="18"/>
<text text-anchor="middle" x="292.98" y="-1634.3" font-family="Times,serif" font-size="14.00">daily</text>
</g>
<!-- 52&#45;&gt;53 -->
<g id="edge50" class="edge">
<title>52&#45;&gt;53</title>
<path fill="none" stroke="black" d="M169.64,-1615.64C193.24,-1619.95 228.65,-1626.43 255.31,-1631.3"/>
<polygon fill="black" stroke="black" points="254.95,-1634.79 265.42,-1633.15 256.21,-1627.91 254.95,-1634.79"/>
</g>
<!-- 54 -->
<g id="node54" class="node">
<title>54</title>
<ellipse fill="none" stroke="black" cx="292.98" cy="-1584" rx="40.09" ry="18"/>
<text text-anchor="middle" x="292.98" y="-1580.3" font-family="Times,serif" font-size="14.00">monthly</text>
</g>
<!-- 52&#45;&gt;54 -->
<g id="edge51" class="edge">
<title>52&#45;&gt;54</title>
<path fill="none" stroke="black" d="M169.64,-1606.36C190.38,-1602.57 220.24,-1597.11 245.27,-1592.54"/>
<polygon fill="black" stroke="black" points="246.1,-1595.94 255.3,-1590.7 244.84,-1589.06 246.1,-1595.94"/>
</g>
<!-- 55 -->
<g id="node55" class="node">
<title>55</title>
<ellipse fill="none" stroke="black" cx="292.98" cy="-1530" rx="29.5" ry="18"/>
<text text-anchor="middle" x="292.98" y="-1526.3" font-family="Times,serif" font-size="14.00">static</text>
</g>
<!-- 52&#45;&gt;55 -->
<g id="edge52" class="edge">
<title>52&#45;&gt;55</title>
<path fill="none" stroke="black" d="M159.74,-1596.51C173.16,-1584.58 193.54,-1567.91 213.69,-1557 226.91,-1549.84 242.4,-1544.02 256.1,-1539.64"/>
<polygon fill="black" stroke="black" points="257.15,-1542.98 265.7,-1536.71 255.11,-1536.28 257.15,-1542.98"/>
</g>
<!-- 57 -->
<g id="node57" class="node">
<title>57</title>
<ellipse fill="none" stroke="black" cx="292.98" cy="-1476" rx="40.09" ry="18"/>
<text text-anchor="middle" x="292.98" y="-1472.3" font-family="Times,serif" font-size="14.00">monthly</text>
</g>
<!-- 56&#45;&gt;57 -->
<g id="edge54" class="edge">
<title>56&#45;&gt;57</title>
<path fill="none" stroke="black" d="M170.31,-1476C190.25,-1476 218.32,-1476 242.47,-1476"/>
<polygon fill="black" stroke="black" points="242.55,-1479.5 252.55,-1476 242.55,-1472.5 242.55,-1479.5"/>
</g>
<!-- 58 -->
<g id="node58" class="node">
<title>58</title>
<ellipse fill="none" stroke="black" cx="292.98" cy="-1422" rx="29.5" ry="18"/>
<text text-anchor="middle" x="292.98" y="-1418.3" font-family="Times,serif" font-size="14.00">static</text>
</g>
<!-- 56&#45;&gt;58 -->
<g id="edge55" class="edge">
<title>56&#45;&gt;58</title>
<path fill="none" stroke="black" d="M166.68,-1467.02C180.24,-1461.66 197.9,-1454.79 213.69,-1449 227.92,-1443.78 243.7,-1438.28 257.35,-1433.62"/>
<polygon fill="black" stroke="black" points="258.52,-1436.92 266.86,-1430.39 256.26,-1430.29 258.52,-1436.92"/>
</g>
<!-- 59 -->
<g id="node59" class="node">
<title>59</title>
<ellipse fill="none" stroke="black" cx="36.4" cy="-2502" rx="36.29" ry="18"/>
<text text-anchor="middle" x="36.4" y="-2498.3" font-family="Times,serif" font-size="14.00">RCP85</text>
</g>
<!-- 60 -->
<g id="node60" class="node">
<title>60</title>
<ellipse fill="none" stroke="black" cx="143.24" cy="-2853" rx="27" ry="18"/>
<text text-anchor="middle" x="143.24" y="-2849.3" font-family="Times,serif" font-size="14.00">atm</text>
</g>
<!-- 59&#45;&gt;60 -->
<g id="edge56" class="edge">
<title>59&#45;&gt;60</title>
<path fill="none" stroke="black" d="M42.74,-2519.89C59.85,-2577.16 113.35,-2756.28 134,-2825.4"/>
<polygon fill="black" stroke="black" points="130.69,-2826.57 136.91,-2835.15 137.4,-2824.56 130.69,-2826.57"/>
</g>
<!-- 66 -->
<g id="node66" class="node">
<title>66</title>
<ellipse fill="none" stroke="black" cx="143.24" cy="-2637" rx="34.39" ry="18"/>
<text text-anchor="middle" x="143.24" y="-2633.3" font-family="Times,serif" font-size="14.00">ice_nh</text>
</g>
<!-- 59&#45;&gt;66 -->
<g id="edge62" class="edge">
<title>59&#45;&gt;66</title>
<path fill="none" stroke="black" d="M50.46,-2518.82C68.69,-2542.3 101.88,-2585.03 122.96,-2612.17"/>
<polygon fill="black" stroke="black" points="120.44,-2614.64 129.34,-2620.39 125.97,-2610.34 120.44,-2614.64"/>
</g>
<!-- 70 -->
<g id="node70" class="node">
<title>70</title>
<ellipse fill="none" stroke="black" cx="143.24" cy="-2502" rx="33.29" ry="18"/>
<text text-anchor="middle" x="143.24" y="-2498.3" font-family="Times,serif" font-size="14.00">ice_sh</text>
</g>
<!-- 59&#45;&gt;70 -->
<g id="edge66" class="edge">
<title>59&#45;&gt;70</title>
<path fill="none" stroke="black" d="M72.89,-2502C81.52,-2502 90.83,-2502 99.74,-2502"/>
<polygon fill="black" stroke="black" points="99.96,-2505.5 109.96,-2502 99.96,-2498.5 99.96,-2505.5"/>
</g>
<!-- 74 -->
<g id="node74" class="node">
<title>74</title>
<ellipse fill="none" stroke="black" cx="143.24" cy="-2367" rx="27" ry="18"/>
<text text-anchor="middle" x="143.24" y="-2363.3" font-family="Times,serif" font-size="14.00">lnd</text>
</g>
<!-- 59&#45;&gt;74 -->
<g id="edge70" class="edge">
<title>59&#45;&gt;74</title>
<path fill="none" stroke="black" d="M50.46,-2485.18C68.89,-2461.45 102.6,-2418.04 123.64,-2390.95"/>
<polygon fill="black" stroke="black" points="126.62,-2392.82 129.99,-2382.78 121.09,-2388.53 126.62,-2392.82"/>
</g>
<!-- 78 -->
<g id="node78" class="node">
<title>78</title>
<ellipse fill="none" stroke="black" cx="143.24" cy="-2232" rx="27" ry="18"/>
<text text-anchor="middle" x="143.24" y="-2228.3" font-family="Times,serif" font-size="14.00">ocn</text>
</g>
<!-- 59&#45;&gt;78 -->
<g id="edge74" class="edge">
<title>59&#45;&gt;78</title>
<path fill="none" stroke="black" d="M44.28,-2484.28C62.2,-2438.12 110.44,-2313.89 131.81,-2258.86"/>
<polygon fill="black" stroke="black" points="135.12,-2260.02 135.47,-2249.43 128.59,-2257.48 135.12,-2260.02"/>
</g>
<!-- 61 -->
<g id="node61" class="node">
<title>61</title>
<ellipse fill="none" stroke="black" cx="292.98" cy="-2988" rx="28.7" ry="18"/>
<text text-anchor="middle" x="292.98" y="-2984.3" font-family="Times,serif" font-size="14.00">daily</text>
</g>
<!-- 60&#45;&gt;61 -->
<g id="edge57" class="edge">
<title>60&#45;&gt;61</title>
<path fill="none" stroke="black" d="M151.13,-2870.54C161.34,-2894.33 182.66,-2936.63 213.69,-2961 225.7,-2970.43 241.22,-2976.69 255.27,-2980.77"/>
<polygon fill="black" stroke="black" points="254.61,-2984.22 265.17,-2983.38 256.4,-2977.45 254.61,-2984.22"/>
</g>
<!-- 62 -->
<g id="node62" class="node">
<title>62</title>
<ellipse fill="none" stroke="black" cx="292.98" cy="-2934" rx="79.09" ry="18"/>
<text text-anchor="middle" x="292.98" y="-2930.3" font-family="Times,serif" font-size="14.00">hourly6&#45;2026&#45;2035</text>
</g>
<!-- 60&#45;&gt;62 -->
<g id="edge58" class="edge">
<title>60&#45;&gt;62</title>
<path fill="none" stroke="black" d="M159.74,-2867.49C173.16,-2879.42 193.54,-2896.09 213.69,-2907 219.95,-2910.39 226.71,-2913.48 233.55,-2916.26"/>
<polygon fill="black" stroke="black" points="232.3,-2919.52 242.89,-2919.85 234.81,-2912.99 232.3,-2919.52"/>
</g>
<!-- 63 -->
<g id="node63" class="node">
<title>63</title>
<ellipse fill="none" stroke="black" cx="292.98" cy="-2880" rx="79.09" ry="18"/>
<text text-anchor="middle" x="292.98" y="-2876.3" font-family="Times,serif" font-size="14.00">hourly6&#45;2071&#45;2080</text>
</g>
<!-- 60&#45;&gt;63 -->
<g id="edge59" class="edge">
<title>60&#45;&gt;63</title>
<path fill="none" stroke="black" d="M169.64,-2857.64C183.9,-2860.25 202.49,-2863.65 220.85,-2867"/>
<polygon fill="black" stroke="black" points="220.23,-2870.45 230.7,-2868.8 221.49,-2863.56 220.23,-2870.45"/>
</g>
<!-- 64 -->
<g id="node64" class="node">
<title>64</title>
<ellipse fill="none" stroke="black" cx="292.98" cy="-2826" rx="40.09" ry="18"/>
<text text-anchor="middle" x="292.98" y="-2822.3" font-family="Times,serif" font-size="14.00">monthly</text>
</g>
<!-- 60&#45;&gt;64 -->
<g id="edge60" class="edge">
<title>60&#45;&gt;64</title>
<path fill="none" stroke="black" d="M169.64,-2848.36C190.38,-2844.57 220.24,-2839.11 245.27,-2834.54"/>
<polygon fill="black" stroke="black" points="246.1,-2837.94 255.3,-2832.7 244.84,-2831.06 246.1,-2837.94"/>
</g>
<!-- 65 -->
<g id="node65" class="node">
<title>65</title>
<ellipse fill="none" stroke="black" cx="292.98" cy="-2772" rx="29.5" ry="18"/>
<text text-anchor="middle" x="292.98" y="-2768.3" font-family="Times,serif" font-size="14.00">static</text>
</g>
<!-- 60&#45;&gt;65 -->
<g id="edge61" class="edge">
<title>60&#45;&gt;65</title>
<path fill="none" stroke="black" d="M159.74,-2838.51C173.16,-2826.58 193.54,-2809.91 213.69,-2799 226.91,-2791.84 242.4,-2786.02 256.1,-2781.64"/>
<polygon fill="black" stroke="black" points="257.15,-2784.98 265.7,-2778.71 255.11,-2778.28 257.15,-2784.98"/>
</g>
<!-- 67 -->
<g id="node67" class="node">
<title>67</title>
<ellipse fill="none" stroke="black" cx="292.98" cy="-2718" rx="28.7" ry="18"/>
<text text-anchor="middle" x="292.98" y="-2714.3" font-family="Times,serif" font-size="14.00">daily</text>
</g>
<!-- 66&#45;&gt;67 -->
<g id="edge63" class="edge">
<title>66&#45;&gt;67</title>
<path fill="none" stroke="black" d="M161.1,-2652.7C174.52,-2664.53 194.22,-2680.45 213.69,-2691 227.01,-2698.22 242.64,-2704.07 256.41,-2708.46"/>
<polygon fill="black" stroke="black" points="255.47,-2711.83 266.06,-2711.39 257.51,-2705.13 255.47,-2711.83"/>
</g>
<!-- 68 -->
<g id="node68" class="node">
<title>68</title>
<ellipse fill="none" stroke="black" cx="292.98" cy="-2664" rx="40.09" ry="18"/>
<text text-anchor="middle" x="292.98" y="-2660.3" font-family="Times,serif" font-size="14.00">monthly</text>
</g>
<!-- 66&#45;&gt;68 -->
<g id="edge64" class="edge">
<title>66&#45;&gt;68</title>
<path fill="none" stroke="black" d="M175.93,-2642.79C196.15,-2646.49 222.71,-2651.34 245.32,-2655.47"/>
<polygon fill="black" stroke="black" points="244.93,-2658.96 255.39,-2657.31 246.19,-2652.07 244.93,-2658.96"/>
</g>
<!-- 69 -->
<g id="node69" class="node">
<title>69</title>
<ellipse fill="none" stroke="black" cx="292.98" cy="-2610" rx="29.5" ry="18"/>
<text text-anchor="middle" x="292.98" y="-2606.3" font-family="Times,serif" font-size="14.00">static</text>
</g>
<!-- 66&#45;&gt;69 -->
<g id="edge65" class="edge">
<title>66&#45;&gt;69</title>
<path fill="none" stroke="black" d="M175.93,-2631.21C199.08,-2626.98 230.54,-2621.23 254.86,-2616.78"/>
<polygon fill="black" stroke="black" points="255.59,-2620.21 264.8,-2614.97 254.34,-2613.32 255.59,-2620.21"/>
</g>
<!-- 71 -->
<g id="node71" class="node">
<title>71</title>
<ellipse fill="none" stroke="black" cx="292.98" cy="-2556" rx="28.7" ry="18"/>
<text text-anchor="middle" x="292.98" y="-2552.3" font-family="Times,serif" font-size="14.00">daily</text>
</g>
<!-- 70&#45;&gt;71 -->
<g id="edge67" class="edge">
<title>70&#45;&gt;71</title>
<path fill="none" stroke="black" d="M170.53,-2512.5C183.48,-2517.6 199.36,-2523.75 213.69,-2529 228.03,-2534.26 243.94,-2539.8 257.66,-2544.49"/>
<polygon fill="black" stroke="black" points="256.62,-2547.83 267.21,-2547.73 258.87,-2541.2 256.62,-2547.83"/>
</g>
<!-- 72 -->
<g id="node72" class="node">
<title>72</title>
<ellipse fill="none" stroke="black" cx="292.98" cy="-2502" rx="40.09" ry="18"/>
<text text-anchor="middle" x="292.98" y="-2498.3" font-family="Times,serif" font-size="14.00">monthly</text>
</g>
<!-- 70&#45;&gt;72 -->
<g id="edge68" class="edge">
<title>70&#45;&gt;72</title>
<path fill="none" stroke="black" d="M176.66,-2502C195.95,-2502 220.81,-2502 242.5,-2502"/>
<polygon fill="black" stroke="black" points="242.54,-2505.5 252.54,-2502 242.54,-2498.5 242.54,-2505.5"/>
</g>
<!-- 73 -->
<g id="node73" class="node">
<title>73</title>
<ellipse fill="none" stroke="black" cx="292.98" cy="-2448" rx="29.5" ry="18"/>
<text text-anchor="middle" x="292.98" y="-2444.3" font-family="Times,serif" font-size="14.00">static</text>
</g>
<!-- 70&#45;&gt;73 -->
<g id="edge69" class="edge">
<title>70&#45;&gt;73</title>
<path fill="none" stroke="black" d="M170.53,-2491.5C183.48,-2486.4 199.36,-2480.25 213.69,-2475 227.92,-2469.78 243.7,-2464.28 257.35,-2459.62"/>
<polygon fill="black" stroke="black" points="258.52,-2462.92 266.86,-2456.39 256.26,-2456.29 258.52,-2462.92"/>
</g>
<!-- 75 -->
<g id="node75" class="node">
<title>75</title>
<ellipse fill="none" stroke="black" cx="292.98" cy="-2394" rx="28.7" ry="18"/>
<text text-anchor="middle" x="292.98" y="-2390.3" font-family="Times,serif" font-size="14.00">daily</text>
</g>
<!-- 74&#45;&gt;75 -->
<g id="edge71" class="edge">
<title>74&#45;&gt;75</title>
<path fill="none" stroke="black" d="M169.64,-2371.64C193.24,-2375.95 228.65,-2382.43 255.31,-2387.3"/>
<polygon fill="black" stroke="black" points="254.95,-2390.79 265.42,-2389.15 256.21,-2383.91 254.95,-2390.79"/>
</g>
<!-- 76 -->
<g id="node76" class="node">
<title>76</title>
<ellipse fill="none" stroke="black" cx="292.98" cy="-2340" rx="40.09" ry="18"/>
<text text-anchor="middle" x="292.98" y="-2336.3" font-family="Times,serif" font-size="14.00">monthly</text>
</g>
<!-- 74&#45;&gt;76 -->
<g id="edge72" class="edge">
<title>74&#45;&gt;76</title>
<path fill="none" stroke="black" d="M169.64,-2362.36C190.38,-2358.57 220.24,-2353.11 245.27,-2348.54"/>
<polygon fill="black" stroke="black" points="246.1,-2351.94 255.3,-2346.7 244.84,-2345.06 246.1,-2351.94"/>
</g>
<!-- 77 -->
<g id="node77" class="node">
<title>77</title>
<ellipse fill="none" stroke="black" cx="292.98" cy="-2286" rx="29.5" ry="18"/>
<text text-anchor="middle" x="292.98" y="-2282.3" font-family="Times,serif" font-size="14.00">static</text>
</g>
<!-- 74&#45;&gt;77 -->
<g id="edge73" class="edge">
<title>74&#45;&gt;77</title>
<path fill="none" stroke="black" d="M159.74,-2352.51C173.16,-2340.58 193.54,-2323.91 213.69,-2313 226.91,-2305.84 242.4,-2300.02 256.1,-2295.64"/>
<polygon fill="black" stroke="black" points="257.15,-2298.98 265.7,-2292.71 255.11,-2292.28 257.15,-2298.98"/>
</g>
<!-- 79 -->
<g id="node79" class="node">
<title>79</title>
<ellipse fill="none" stroke="black" cx="292.98" cy="-2232" rx="40.09" ry="18"/>
<text text-anchor="middle" x="292.98" y="-2228.3" font-family="Times,serif" font-size="14.00">monthly</text>
</g>
<!-- 78&#45;&gt;79 -->
<g id="edge75" class="edge">
<title>78&#45;&gt;79</title>
<path fill="none" stroke="black" d="M170.31,-2232C190.25,-2232 218.32,-2232 242.47,-2232"/>
<polygon fill="black" stroke="black" points="242.55,-2235.5 252.55,-2232 242.55,-2228.5 242.55,-2235.5"/>
</g>
<!-- 80 -->
<g id="node80" class="node">
<title>80</title>
<ellipse fill="none" stroke="black" cx="292.98" cy="-2178" rx="29.5" ry="18"/>
<text text-anchor="middle" x="292.98" y="-2174.3" font-family="Times,serif" font-size="14.00">static</text>
</g>
<!-- 78&#45;&gt;80 -->
<g id="edge76" class="edge">
<title>78&#45;&gt;80</title>
<path fill="none" stroke="black" d="M166.68,-2223.02C180.24,-2217.66 197.9,-2210.79 213.69,-2205 227.92,-2199.78 243.7,-2194.28 257.35,-2189.62"/>
<polygon fill="black" stroke="black" points="258.52,-2192.92 266.86,-2186.39 256.26,-2186.29 258.52,-2192.92"/>
</g>
</g>
</svg>
