<?xml version="1.0" encoding="UTF-8" standalone="no"?>
<!DOCTYPE svg PUBLIC "-//W3C//DTD SVG 1.1//EN"
 "http://www.w3.org/Graphics/SVG/1.1/DTD/svg11.dtd">
<!-- Generated by graphviz version 2.30.1 (20180420.1509)
 -->
<!-- Title: %3 Pages: 1 -->
<svg width="724pt" height="636pt"
 viewBox="0.00 0.00 724.00 636.00" xmlns="http://www.w3.org/2000/svg" xmlns:xlink="http://www.w3.org/1999/xlink">
<g id="graph0" class="graph" transform="scale(1 1) rotate(0) translate(4 632)">
<title>%3</title>
<polygon fill="white" stroke="white" points="-4,5 -4,-632 721,-632 721,5 -4,5"/>
<!-- 1 -->
<g id="node1" class="node"><title>1</title>
<ellipse fill="none" stroke="black" cx="132" cy="-203" rx="131.077" ry="18"/>
<text text-anchor="middle" x="132" y="-199.3" font-family="Times,serif" font-size="14.00">b.e20.B1850.f19_g17.test</text>
</g>
<!-- 2 -->
<g id="node2" class="node"><title>2</title>
<ellipse fill="none" stroke="black" cx="329" cy="-521" rx="28.6953" ry="18"/>
<text text-anchor="middle" x="329" y="-517.3" font-family="Times,serif" font-size="14.00">atm</text>
</g>
<!-- 1&#45;&gt;2 -->
<g id="edge1" class="edge"><title>1&#45;&gt;2</title>
<path fill="none" stroke="black" d="M144.043,-221.008C176.919,-274.622 274.237,-433.325 312.397,-495.555"/>
<polygon fill="black" stroke="black" points="309.578,-497.654 317.789,-504.349 315.546,-493.994 309.578,-497.654"/>
</g>
<!-- 4 -->
<g id="node4" class="node"><title>4</title>
<ellipse fill="none" stroke="black" cx="329" cy="-386" rx="27.0966" ry="18"/>
<text text-anchor="middle" x="329" y="-382.3" font-family="Times,serif" font-size="14.00">ocn</text>
</g>
<!-- 1&#45;&gt;4 -->
<g id="edge3" class="edge"><title>1&#45;&gt;4</title>
<path fill="none" stroke="black" d="M152.052,-220.88C188.019,-254.634 265.797,-327.625 304.763,-364.193"/>
<polygon fill="black" stroke="black" points="302.773,-367.126 312.46,-371.417 307.564,-362.021 302.773,-367.126"/>
</g>
<!-- 9 -->
<g id="node9" class="node"><title>9</title>
<ellipse fill="none" stroke="black" cx="329" cy="-233" rx="27" ry="18"/>
<text text-anchor="middle" x="329" y="-229.3" font-family="Times,serif" font-size="14.00">lnd</text>
</g>
<!-- 1&#45;&gt;9 -->
<g id="edge8" class="edge"><title>1&#45;&gt;9</title>
<path fill="none" stroke="black" d="M219.95,-216.377C245.55,-220.315 272.131,-224.405 292.524,-227.542"/>
<polygon fill="black" stroke="black" points="292.169,-231.029 302.585,-229.09 293.234,-224.11 292.169,-231.029"/>
</g>
<!-- 11 -->
<g id="node11" class="node"><title>11</title>
<ellipse fill="none" stroke="black" cx="329" cy="-174" rx="27" ry="18"/>
<text text-anchor="middle" x="329" y="-170.3" font-family="Times,serif" font-size="14.00">glc</text>
</g>
<!-- 1&#45;&gt;11 -->
<g id="edge10" class="edge"><title>1&#45;&gt;11</title>
<path fill="none" stroke="black" d="M221.656,-189.815C246.558,-186.112 272.237,-182.293 292.121,-179.336"/>
<polygon fill="black" stroke="black" points="292.866,-182.764 302.242,-177.831 291.836,-175.84 292.866,-182.764"/>
</g>
<!-- 13 -->
<g id="node13" class="node"><title>13</title>
<ellipse fill="none" stroke="black" cx="329" cy="-111" rx="27" ry="18"/>
<text text-anchor="middle" x="329" y="-107.3" font-family="Times,serif" font-size="14.00">rof</text>
</g>
<!-- 1&#45;&gt;13 -->
<g id="edge12" class="edge"><title>1&#45;&gt;13</title>
<path fill="none" stroke="black" d="M169.678,-185.696C206.587,-168.282 262.858,-141.734 297.429,-125.423"/>
<polygon fill="black" stroke="black" points="299.02,-128.543 306.571,-121.11 296.033,-122.212 299.02,-128.543"/>
</g>
<!-- 15 -->
<g id="node15" class="node"><title>15</title>
<ellipse fill="none" stroke="black" cx="329" cy="-39" rx="27" ry="18"/>
<text text-anchor="middle" x="329" y="-35.3" font-family="Times,serif" font-size="14.00">ice</text>
</g>
<!-- 1&#45;&gt;15 -->
<g id="edge14" class="edge"><title>1&#45;&gt;15</title>
<path fill="none" stroke="black" d="M154.24,-185.137C190.672,-154.496 264.874,-92.0907 303.459,-59.6397"/>
<polygon fill="black" stroke="black" points="306.17,-61.9327 311.571,-52.8175 301.665,-56.5755 306.17,-61.9327"/>
</g>
<!-- 3 -->
<g id="node3" class="node"><title>3</title>
<ellipse fill="none" stroke="black" cx="555" cy="-602" rx="115.931" ry="26.7407"/>
<text text-anchor="middle" x="555" y="-605.8" font-family="Times,serif" font-size="14.00">stream: cam.h0 </text>
<text text-anchor="middle" x="555" y="-590.8" font-family="Times,serif" font-size="14.00"> frequency: month_1</text>
</g>
<!-- 2&#45;&gt;3 -->
<g id="edge2" class="edge"><title>2&#45;&gt;3</title>
<path fill="none" stroke="black" d="M346.871,-535.23C359.203,-544.947 376.723,-557.393 394,-565 411.746,-572.814 431.355,-579.087 450.586,-584.087"/>
<polygon fill="black" stroke="black" points="449.739,-587.483 460.289,-586.514 451.437,-580.692 449.739,-587.483"/>
</g>
<!-- 5 -->
<g id="node5" class="node"><title>5</title>
<ellipse fill="none" stroke="black" cx="555" cy="-530" rx="115.931" ry="26.7407"/>
<text text-anchor="middle" x="555" y="-533.8" font-family="Times,serif" font-size="14.00">stream: pop.h </text>
<text text-anchor="middle" x="555" y="-518.8" font-family="Times,serif" font-size="14.00"> frequency: month_1</text>
</g>
<!-- 4&#45;&gt;5 -->
<g id="edge4" class="edge"><title>4&#45;&gt;5</title>
<path fill="none" stroke="black" d="M335.675,-403.836C344.291,-427.928 363.031,-470.443 394,-493 407.678,-502.963 423.614,-510.294 440.026,-515.68"/>
<polygon fill="black" stroke="black" points="439.144,-519.07 449.73,-518.631 441.181,-512.373 439.144,-519.07"/>
</g>
<!-- 6 -->
<g id="node6" class="node"><title>6</title>
<ellipse fill="none" stroke="black" cx="555" cy="-458" rx="156.042" ry="26.7407"/>
<text text-anchor="middle" x="555" y="-461.8" font-family="Times,serif" font-size="14.00">stream: pop.h.ecosys.nday1 </text>
<text text-anchor="middle" x="555" y="-446.8" font-family="Times,serif" font-size="14.00"> frequency: day_1</text>
</g>
<!-- 4&#45;&gt;6 -->
<g id="edge5" class="edge"><title>4&#45;&gt;6</title>
<path fill="none" stroke="black" d="M349.225,-398.324C361.6,-405.793 378.259,-415.006 394,-421 408.673,-426.588 424.437,-431.483 440.145,-435.726"/>
<polygon fill="black" stroke="black" points="439.346,-439.135 449.907,-438.284 441.12,-432.364 439.346,-439.135"/>
</g>
<!-- 7 -->
<g id="node7" class="node"><title>7</title>
<ellipse fill="none" stroke="black" cx="555" cy="-386" rx="160.526" ry="26.7407"/>
<text text-anchor="middle" x="555" y="-389.8" font-family="Times,serif" font-size="14.00">stream: pop.h.ecosys.nyear1 </text>
<text text-anchor="middle" x="555" y="-374.8" font-family="Times,serif" font-size="14.00"> frequency: year_1</text>
</g>
<!-- 4&#45;&gt;7 -->
<g id="edge6" class="edge"><title>4&#45;&gt;7</title>
<path fill="none" stroke="black" d="M356.575,-386C364.567,-386 373.988,-386 384.307,-386"/>
<polygon fill="black" stroke="black" points="384.459,-389.5 394.459,-386 384.459,-382.5 384.459,-389.5"/>
</g>
<!-- 8 -->
<g id="node8" class="node"><title>8</title>
<ellipse fill="none" stroke="black" cx="555" cy="-314" rx="96.3333" ry="26.7407"/>
<text text-anchor="middle" x="555" y="-317.8" font-family="Times,serif" font-size="14.00">stream: pop.h </text>
<text text-anchor="middle" x="555" y="-302.8" font-family="Times,serif" font-size="14.00"> frequency: once</text>
</g>
<!-- 4&#45;&gt;8 -->
<g id="edge7" class="edge"><title>4&#45;&gt;8</title>
<path fill="none" stroke="black" d="M348.887,-373.439C361.266,-365.704 378.054,-356.127 394,-350 415.531,-341.727 439.458,-335.085 462.108,-329.87"/>
<polygon fill="black" stroke="black" points="463.069,-333.241 472.067,-327.648 461.545,-326.409 463.069,-333.241"/>
</g>
<!-- 10 -->
<g id="node10" class="node"><title>10</title>
<ellipse fill="none" stroke="black" cx="555" cy="-242" rx="115.931" ry="26.7407"/>
<text text-anchor="middle" x="555" y="-245.8" font-family="Times,serif" font-size="14.00">stream: clm2.h0 </text>
<text text-anchor="middle" x="555" y="-230.8" font-family="Times,serif" font-size="14.00"> frequency: month_1</text>
</g>
<!-- 9&#45;&gt;10 -->
<g id="edge9" class="edge"><title>9&#45;&gt;10</title>
<path fill="none" stroke="black" d="M356.134,-234.05C375.129,-234.813 402.36,-235.907 430.568,-237.041"/>
<polygon fill="black" stroke="black" points="430.442,-240.538 440.575,-237.443 430.723,-233.544 430.442,-240.538"/>
</g>
<!-- 12 -->
<g id="node12" class="node"><title>12</title>
<ellipse fill="none" stroke="black" cx="555" cy="-170" rx="106.132" ry="26.7407"/>
<text text-anchor="middle" x="555" y="-173.8" font-family="Times,serif" font-size="14.00">stream: cism.h </text>
<text text-anchor="middle" x="555" y="-158.8" font-family="Times,serif" font-size="14.00"> frequency: year_1</text>
</g>
<!-- 11&#45;&gt;12 -->
<g id="edge11" class="edge"><title>11&#45;&gt;12</title>
<path fill="none" stroke="black" d="M356.134,-173.533C377.014,-173.16 407.843,-172.61 438.984,-172.054"/>
<polygon fill="black" stroke="black" points="439.158,-175.551 449.093,-171.873 439.032,-168.553 439.158,-175.551"/>
</g>
<!-- 14 -->
<g id="node14" class="node"><title>14</title>
<ellipse fill="none" stroke="black" cx="555" cy="-98" rx="115.931" ry="26.7407"/>
<text text-anchor="middle" x="555" y="-101.8" font-family="Times,serif" font-size="14.00">stream: mosart.h0 </text>
<text text-anchor="middle" x="555" y="-86.8" font-family="Times,serif" font-size="14.00"> frequency: month_1</text>
</g>
<!-- 13&#45;&gt;14 -->
<g id="edge13" class="edge"><title>13&#45;&gt;14</title>
<path fill="none" stroke="black" d="M356.134,-109.483C375.491,-108.36 403.399,-106.74 432.179,-105.07"/>
<polygon fill="black" stroke="black" points="432.602,-108.551 442.383,-104.478 432.197,-101.563 432.602,-108.551"/>
</g>
<!-- 16 -->
<g id="node16" class="node"><title>16</title>
<ellipse fill="none" stroke="black" cx="555" cy="-26" rx="115.931" ry="26.7407"/>
<text text-anchor="middle" x="555" y="-29.8" font-family="Times,serif" font-size="14.00">stream: cice.h </text>
<text text-anchor="middle" x="555" y="-14.8" font-family="Times,serif" font-size="14.00"> frequency: month_1</text>
</g>
<!-- 15&#45;&gt;16 -->
<g id="edge15" class="edge"><title>15&#45;&gt;16</title>
<path fill="none" stroke="black" d="M356.134,-37.4833C375.491,-36.3599 403.399,-34.7402 432.179,-33.07"/>
<polygon fill="black" stroke="black" points="432.602,-36.5514 442.383,-32.4778 432.197,-29.5631 432.602,-36.5514"/>
</g>
</g>
</svg>
